<?xml version="1.0" encoding="utf-8"?>
<!-- Generator: Adobe Illustrator 26.0.1, SVG Export Plug-In . SVG Version: 6.00 Build 0)  -->
<svg version="1.1" xmlns="http://www.w3.org/2000/svg" xmlns:xlink="http://www.w3.org/1999/xlink" x="0px" y="0px" width="197.9px"
	 height="65px" viewBox="0 0 197.9 65" style="enable-background:new 0 0 197.9 65;" xml:space="preserve">
<style type="text/css">
	.st0{fill:#FFFFFF;}
	.st1{fill:#B7D433;}
	.st2{opacity:0.9;}
	.st3{display:none;}
	.st4{display:inline;opacity:0.2;}
	.st5{fill-rule:evenodd;clip-rule:evenodd;fill:#B9D532;}
	.st6{fill-rule:evenodd;clip-rule:evenodd;fill:#6D6E71;}
	.st7{fill:#6D6E71;}
</style>
<g id="Layer_1">
	<g>
		<g>
			<path class="st0" d="M11.6,62L2.9,28.9l0-0.2c0-0.3,0.2-0.4,0.5-0.4h6.1c0.3,0,0.5,0.2,0.6,0.5l4.6,19.9c0,0.1,0.1,0.2,0.1,0.2
				s0.1-0.1,0.1-0.2l4.5-19.8c0.1-0.4,0.3-0.5,0.6-0.5h5.9c0.4,0,0.6,0.2,0.7,0.5l4.9,19.9c0,0.1,0.1,0.2,0.1,0.2
				c0.1,0,0.1,0,0.1-0.2l4.5-19.8c0.1-0.4,0.3-0.5,0.6-0.5h5.8c0.5,0,0.6,0.2,0.5,0.6l-8,33.1c-0.1,0.3-0.3,0.5-0.7,0.5h-5.8
				c-0.3,0-0.5-0.2-0.6-0.5l-5-21.2c0-0.1-0.1-0.2-0.1-0.2c-0.1,0-0.1,0.1-0.1,0.2L18.3,62c-0.1,0.4-0.3,0.5-0.6,0.5h-5.4
				C11.9,62.5,11.7,62.3,11.6,62z"/>
			<path class="st0" d="M47.7,62.3c-0.1-0.1-0.2-0.3-0.2-0.4v-33c0-0.2,0.1-0.3,0.2-0.4c0.1-0.1,0.3-0.2,0.4-0.2h5.7
				c0.2,0,0.3,0.1,0.4,0.2c0.1,0.1,0.2,0.3,0.2,0.4v33c0,0.2-0.1,0.3-0.2,0.4s-0.3,0.2-0.4,0.2h-5.7C48,62.5,47.8,62.4,47.7,62.3z"
				/>
			<path class="st0" d="M80.2,28.5c0.1-0.1,0.3-0.2,0.4-0.2h5.7c0.2,0,0.3,0.1,0.4,0.2c0.1,0.1,0.2,0.3,0.2,0.4v33
				c0,0.2-0.1,0.3-0.2,0.4s-0.3,0.2-0.4,0.2h-5.5c-0.3,0-0.6-0.1-0.7-0.4L67.5,41.2c-0.1-0.1-0.1-0.1-0.2-0.1
				c-0.1,0-0.1,0.1-0.1,0.2l0.1,20.6c0,0.2-0.1,0.3-0.2,0.4s-0.3,0.2-0.4,0.2H61c-0.2,0-0.3-0.1-0.4-0.2s-0.2-0.3-0.2-0.4v-33
				c0-0.2,0.1-0.3,0.2-0.4c0.1-0.1,0.3-0.2,0.4-0.2h5.5c0.3,0,0.6,0.1,0.7,0.4l12.6,20.8c0.1,0.1,0.1,0.1,0.2,0.1
				c0.1,0,0.1-0.1,0.1-0.2l0-20.5C80,28.7,80.1,28.6,80.2,28.5z"/>
			<path class="st0" d="M98.3,61.4c-1.9-1-3.4-2.4-4.5-4.2c-1.1-1.8-1.6-3.9-1.6-6.3V39.9c0-2.4,0.5-4.5,1.6-6.3
				c1.1-1.8,2.5-3.2,4.5-4.2c1.9-1,4.1-1.5,6.6-1.5c2.5,0,4.7,0.5,6.6,1.5s3.4,2.3,4.4,4c1.1,1.7,1.6,3.5,1.6,5.6v0.3
				c0,0.2-0.1,0.3-0.2,0.4s-0.3,0.2-0.4,0.2h-5.7c-0.2,0-0.3-0.1-0.4-0.2s-0.2-0.3-0.2-0.4v-0.1c0-1.5-0.5-2.8-1.6-3.8
				s-2.4-1.5-4.2-1.5c-1.8,0-3.2,0.5-4.2,1.6c-1.1,1.1-1.6,2.5-1.6,4.3v11.3c0,1.8,0.6,3.2,1.7,4.3c1.1,1.1,2.6,1.6,4.3,1.6
				c1.7,0,3-0.4,4.1-1.3c1-0.9,1.5-2.1,1.5-3.7v-2.2c0-0.2-0.1-0.2-0.2-0.2H105c-0.2,0-0.3-0.1-0.4-0.2c-0.1-0.1-0.2-0.3-0.2-0.4
				v-4.5c0-0.2,0.1-0.3,0.2-0.4c0.1-0.1,0.3-0.2,0.4-0.2h11.9c0.2,0,0.3,0.1,0.4,0.2c0.1,0.1,0.2,0.3,0.2,0.4v6.5
				c0,2.5-0.5,4.6-1.6,6.5c-1,1.8-2.5,3.2-4.4,4.2s-4.1,1.4-6.6,1.4C102.4,62.9,100.2,62.4,98.3,61.4z"/>
			<path class="st1" d="M121.6,62.3c-0.1-0.1-0.2-0.3-0.2-0.4v-5.3c0-0.3,0.1-0.5,0.2-0.7l15.8-21.4c0.1-0.1,0.1-0.1,0-0.2
				s-0.1-0.1-0.2-0.1H122c-0.2,0-0.3-0.1-0.4-0.2c-0.1-0.1-0.2-0.3-0.2-0.4v-4.7c0-0.2,0.1-0.3,0.2-0.4c0.1-0.1,0.3-0.2,0.4-0.2
				h22.6c0.2,0,0.3,0.1,0.4,0.2c0.1,0.1,0.2,0.3,0.2,0.4v5.3c0,0.3-0.1,0.5-0.2,0.7l-15.8,21.4c0,0.1,0,0.1,0,0.2
				c0,0.1,0.1,0.1,0.2,0.1h15.2c0.2,0,0.3,0.1,0.4,0.2c0.1,0.1,0.2,0.3,0.2,0.4v4.7c0,0.2-0.1,0.3-0.2,0.4c-0.1,0.1-0.3,0.2-0.4,0.2
				H122C121.8,62.5,121.7,62.4,121.6,62.3z"/>
		</g>
		<g class="st2">
			<path class="st0" d="M157.9,7.5l9.5,20.5c1.5,3.3-2.3,6.3-5.2,4.2c0,0-18.1-13.5-18.1-13.5c-4.1-3-4.9-8.8-1.9-12.8
				C146.3,0.3,155.1,1.2,157.9,7.5L157.9,7.5z"/>
		</g>
		<g class="st2">
			<path class="st1" d="M191.7,18.7l-18.1,13.5c-2.9,2.1-6.7-1-5.2-4.2c0,0,9.5-20.5,9.5-20.5c2.1-4.6,7.6-6.6,12.2-4.4
				C196.4,5.9,197.2,14.7,191.7,18.7L191.7,18.7z"/>
		</g>
		<g class="st2">
			<path class="st0" d="M152.4,36.4l11.9-8.7c1.9-1.4,4.4,0.7,3.5,2.8c0,0-6.1,13.4-6.1,13.4c-1.4,3.1-5,4.4-8.1,3
				C149.2,45.1,148.6,39.1,152.4,36.4L152.4,36.4z"/>
		</g>
		<g class="st2">
			<path class="st1" d="M174.5,43.9l-6.1-13.4c-1-2.2,1.6-4.2,3.5-2.8c0,0,11.9,8.7,11.9,8.7c2.7,2,3.3,5.8,1.3,8.6
				C182.3,48.8,176.4,48.1,174.5,43.9L174.5,43.9z"/>
		</g>
	</g>
</g>
<g id="Layer_2" class="st3">
</g>
</svg>
